<svg xmlns="http://www.w3.org/2000/svg" width="940" height="600"><rect width="940" height="600" x="0" y="0" fill="#121212" id="background"/><g transform="translate(470,300)" id="viz"><path fill="#e377c2" display="" d="M0.999992072947904,-191.3307201165001A191.33333333333334,191.33333333333334,0,0,1,187.13910269526096,-39.84219731461878L94.44336089619205,-20.613006260030783A96.66666666666667,96.66666666666667,0,0,0,0.9999920729479188,-96.66149419649216Z"><title>Rock Progresivo</title></path><path fill="#ff7f0e" display="" d="M187.54533900778847,-37.883905037603256A191.33333333333334,191.33333333333334,0,0,1,113.16437929724562,154.27983569706566L57.57185577388577,77.65259729845063A96.66666666666667,96.66666666666667,0,0,0,94.84959720871956,-18.654713983015256Z"><title>Heavy Metal</title></path><path fill="#1f77b4" display="" d="M111.54555057596185,155.4542845699339A191.33333333333334,191.33333333333334,0,0,1,10.641091882607222,191.03719953975025L5.870108158670833,96.48827014020901A96.66666666666667,96.66666666666667,0,0,0,55.953027052602025,78.82704617131883Z"><title>Hard Rock</title></path><path fill="#2ca02c" display="" d="M8.64364912364475,191.1379914466817A191.33333333333334,191.33333333333334,0,0,1,-139.37235963719044,131.0869551618547L-70.0746969798252,66.58814675022967A96.66666666666667,96.66666666666667,0,0,0,3.8726653997083194,96.58906204714044Z"><title>Hip Hop</title></path><path fill="#8c564b" display="" d="M-140.73496288020652,129.62297121865146A191.33333333333334,191.33333333333334,0,0,1,-189.74484966616248,-24.603586519242384L-95.92649112681795,-11.93954540763425A96.66666666666667,96.66666666666667,0,0,0,-71.43730022284127,65.12416280702645Z"><title>Rock Nacional</title></path><path fill="#7f7f7f" display="" d="M-189.4773088555131,-26.58559522216775A191.33333333333334,191.33333333333334,0,0,1,-116.17301318625088,-152.027219443334L-59.08605216779144,-76.50675057581176A96.66666666666667,96.66666666666667,0,0,0,-95.65895031616857,-13.921554110559573Z"><title>Soundtracks</title></path><path fill="#d62728" display="" d="M-114.57756610238779,-153.23323983554417A191.33333333333334,191.33333333333334,0,0,1,-72.9153653716775,-176.89486690449561L-37.29573636065202,-89.18224315277781A96.66666666666667,96.66666666666667,0,0,0,-57.4906050839283,-77.71277096802199Z"><title>Podcasts</title></path><path fill="#9467bd" display="" d="M-71.06234655596882,-177.64736796925484A191.33333333333334,191.33333333333334,0,0,1,-0.999992072947715,-191.3307201165001L-0.9999920729478018,-96.66149419649216A96.66666666666667,96.66666666666667,0,0,0,-35.44271754494331,-89.93474421753704Z"><title>Rock</title></path><path fill="#e377c2" display="" d="M0.9999920729479248,-287.99826391118063A288,288,0,0,1,234.22104683697063,-167.58431077697466L157.04022441563134,-112.76588887277008A193.33333333333334,193.33333333333334,0,0,0,0.9999920729479279,-193.33074715014118Z"><title>Pink Floyd</title></path><path fill="#e377c2" display="" d="M235.37916293066914,-165.95375758944868A288,288,0,0,1,266.18346554784824,-109.95618522364941L178.5622196161386,-74.11687731910773A193.33333333333334,193.33333333333334,0,0,0,158.19834050932988,-111.13533568524414Z"><title>EL&amp;P</title></path><path fill="#e377c2" display="" d="M266.94062122343115,-108.1050634376053A288,288,0,0,1,281.7915052353782,-59.47728622911267L189.09743696597957,-40.248442338495096A193.33333333333334,193.33333333333334,0,0,0,179.3193752917215,-72.26575553306361Z"><title>Dream Theater</title></path><path fill="#ff7f0e" display="" d="M282.19774154790576,-57.51899395209714A288,288,0,0,1,264.27493864052605,114.46727395437608L177.53717643711514,76.53972014917765A193.33333333333334,193.33333333333334,0,0,0,189.50367327850708,-38.29015006147957Z"><title>Iron Maiden</title></path><path fill="#ff7f0e" display="" d="M263.47366583969324,116.29973090679819A288,288,0,0,1,238.81666439961668,160.96770112367528L160.50022842542296,107.7842959487366A193.33333333333334,193.33333333333334,0,0,0,176.7359036362823,78.37217710159976Z"><title>Metallica</title></path><path fill="#ff7f0e" display="" d="M237.69309032887057,162.62224574120043A288,288,0,0,1,206.25868741482532,201.00088026153858L138.68990185853556,134.6955415009998A193.33333333333334,193.33333333333334,0,0,0,159.37665435467682,109.43884056626175Z"><title>Deep Purple</title></path><path fill="#ff7f0e" display="" d="M204.85789408204928,202.42836568096843A288,288,0,0,1,169.93037321053728,232.52455410241626L114.3388533550456,155.8986991325815A193.33333333333334,193.33333333333334,0,0,0,137.28910852575953,136.12302692042962Z"><title>System Of A Down</title></path><path fill="#1f77b4" display="" d="M168.31154448925344,233.69900297528454A288,288,0,0,1,15.512783539482385,287.58190754436754L10.741885950924624,193.03468513196043A193.33333333333334,193.33333333333334,0,0,0,112.72002463376178,157.07314800544972Z"><title>Led Zeppelin</title></path><path fill="#2ca02c" display="" d="M13.51534078051988,287.68269945129896A288,288,0,0,1,-120.69676220455429,261.48860700485073L-80.7247266288715,175.67383495692167A193.33333333333334,193.33333333333334,0,0,0,8.744443191962102,193.13547703889188Z"><title>Eminem</title></path><path fill="#2ca02c" display="" d="M-122.50971969463768,260.64414165743545A288,288,0,0,1,-210.13278653093232,196.94723157421032L-140.83637497412772,132.44958762459274A193.33333333333334,193.33333333333334,0,0,0,-82.5376841189549,174.8293696095064Z"><title>Travis Scott</title></path><path fill="#8c564b" display="" d="M-211.49538977394838,195.48324763100715A288,288,0,0,1,-262.46178219840107,118.56564799822537L-176.05404471027623,79.89212175759161A193.33333333333334,193.33333333333334,0,0,0,-142.1989782171438,130.98560368138953Z"><title>La Vela Puerca</title></path><path fill="#8c564b" display="" d="M-263.27881471381386,116.74016328106315A288,288,0,0,1,-284.92923868629805,41.944355301358584L-191.2237936875056,28.48224895502588A193.33333333333334,193.33333333333334,0,0,0,-176.87107722568902,78.06663704042936Z"><title>La Renga</title></path><path fill="#8c564b" display="" d="M-285.2136445752894,39.964696271590675A288,288,0,0,1,-285.5435656133095,-37.53494554195611L-191.72690087136692,-24.87113306704834A193.33333333333334,193.33333333333334,0,0,0,-191.50819957649696,26.50258992525795Z"><title>Callejeros</title></path><path fill="#7f7f7f" display="" d="M-285.2760248026601,-39.51695424488142A288,288,0,0,1,-259.8240241619002,-124.23959299803067L-174.56045182611388,-83.10491222569674A193.33333333333334,193.33333333333334,0,0,0,-191.45936006071753,-26.85314176997367Z"><title>Ben Prunty</title></path><path fill="#7f7f7f" display="" d="M-258.9549963030749,-126.04090562065343A288,288,0,0,1,-221.682970717929,-183.84955940571032L-149.02457577044152,-123.1643357235272A193.33333333333334,193.33333333333334,0,0,0,-173.69142396728859,-84.90622484831952Z"><title>Howard Shore</title></path><path fill="#7f7f7f" display="" d="M-220.40091020332963,-185.38456996617555A288,288,0,0,1,-174.46498981041842,-229.14180616040062L-117.37905944041378,-153.6227007400325A193.33333333333334,193.33333333333334,0,0,0,-147.74251525584208,-124.69934628399241Z"><title>Ramin Djawadi</title></path><path fill="#d62728" display="" d="M-172.86954272655544,-230.3478265526107A288,288,0,0,1,-109.28686850705768,-266.45896564371986L-73.66788257310172,-178.74792545641887A193.33333333333334,193.33333333333334,0,0,0,-115.7836123565507,-154.82872113224272Z"><title>Office Ladies</title></path><path fill="#9467bd" display="" d="M-107.43384969134891,-267.2114667084791A288,288,0,0,1,-42.60186923321371,-284.83167088270955L-28.923523626890802,-191.1575464343024A193.33333333333334,193.33333333333334,0,0,0,-71.81486375739293,-179.50042652117816Z"><title>Queen</title></path><path fill="#9467bd" display="" d="M-40.62287189402726,-285.1206451295336A288,288,0,0,1,-0.99999207294796,-287.99826391118063L-0.9999920729479516,-193.33074715014118A193.33333333333334,193.33333333333334,0,0,0,-26.94452628770433,-191.4465206811265Z"><title>Creedence</title></path></g><g id="labels" transform="translate(470,300)" text-anchor="middle"><text transform="rotate(90) translate(48.333333333333336,0) rotate(180)"><tspan x="0" y="4" style="font-family: Arial, sans-serif; font-size: 10px; fill: black; font-weight: normal; font-style: italic;"/></text><text transform="rotate(-50.85972702932149) translate(145,0) rotate(0)"><tspan x="0" y="4" style="font-family: Arial, sans-serif; font-size: 10px; fill: black; font-weight: normal; font-style: italic;">Rock Progresivo</tspan></text><text transform="rotate(21.15996212368576) translate(145,0) rotate(0)"><tspan x="0" y="4" style="font-family: Arial, sans-serif; font-size: 10px; fill: black; font-weight: normal; font-style: italic;">Heavy Metal</tspan></text><text transform="rotate(70.57532815255013) translate(145,0) rotate(0)"><tspan x="0" y="4" style="font-family: Arial, sans-serif; font-size: 10px; fill: black; font-weight: normal; font-style: italic;">Hard Rock</tspan></text><text transform="rotate(112.08270750342845) translate(145,0) rotate(180)"><tspan x="0" y="4" style="font-family: Arial, sans-serif; font-size: 10px; fill: black; font-weight: normal; font-style: italic;">Hip Hop</tspan></text><text transform="rotate(162.3708613596291) translate(145,0) rotate(180)"><tspan x="0" y="4" style="font-family: Arial, sans-serif; font-size: 10px; fill: black; font-weight: normal; font-style: italic;">Rock Nacional</tspan></text><text transform="rotate(210.30072487428987) translate(145,0) rotate(180)"><tspan x="0" y="4" style="font-family: Arial, sans-serif; font-size: 10px; fill: black; font-weight: normal; font-style: italic;">Soundtracks</tspan></text><text transform="rotate(240.40602755828382) translate(145,0) rotate(180)"><tspan x="0" y="4" style="font-family: Arial, sans-serif; font-size: 10px; fill: black; font-weight: normal; font-style: italic;">Podcasts</tspan></text><text transform="rotate(258.9490955397375) translate(145,0) rotate(180)"><tspan x="0" y="4" style="font-family: Arial, sans-serif; font-size: 10px; fill: black; font-weight: normal; font-style: italic;">Rock</tspan></text><text transform="rotate(-62.692320250767324) translate(241.66666666666669,0) rotate(0)"><tspan x="0" y="4" style="font-family: Arial, sans-serif; font-size: 10px; fill: black; font-weight: normal; font-style: italic;">Pink Floyd</tspan></text><text transform="rotate(-28.815222360086196) translate(241.66666666666669,0) rotate(0)"><tspan x="0" y="4" style="font-family: Arial, sans-serif; font-size: 10px; fill: black; font-weight: normal; font-style: italic;">EL&amp;P</tspan></text><text transform="rotate(-16.982629138640362) translate(241.66666666666669,0) rotate(0)"><tspan x="0" y="4" style="font-family: Arial, sans-serif; font-size: 10px; fill: black; font-weight: normal; font-style: italic;">Dream Theater</tspan></text><text transform="rotate(5.949356755697778) translate(241.66666666666669,0) rotate(0)"><tspan x="0" y="4" style="font-family: Arial, sans-serif; font-size: 10px; fill: black; font-weight: normal; font-style: italic;">Iron Maiden</tspan></text><text transform="rotate(28.89897472735585) translate(241.66666666666669,0) rotate(0)"><tspan x="0" y="4" style="font-family: Arial, sans-serif; font-size: 10px; fill: black; font-weight: normal; font-style: italic;">Metallica</tspan></text><text transform="rotate(39.31953242343107) translate(241.66666666666669,0) rotate(0)"><tspan x="0" y="4" style="font-family: Arial, sans-serif; font-size: 10px; fill: black; font-weight: normal; font-style: italic;">Deep Purple</tspan></text><text transform="rotate(49.24933063410174) translate(241.66666666666669,0) rotate(0)"><tspan x="0" y="4" style="font-family: Arial, sans-serif; font-size: 10px; fill: black; font-weight: normal; font-style: italic;">System Of A Down</tspan></text><text transform="rotate(70.57532815255013) translate(241.66666666666669,0) rotate(0)"><tspan x="0" y="4" style="font-family: Arial, sans-serif; font-size: 10px; fill: black; font-weight: normal; font-style: italic;">Led Zeppelin</tspan></text><text transform="rotate(101.04355776137922) translate(241.66666666666669,0) rotate(180)"><tspan x="0" y="4" style="font-family: Arial, sans-serif; font-size: 10px; fill: black; font-weight: normal; font-style: italic;">Eminem</tspan></text><text transform="rotate(126.01498726572194) translate(241.66666666666669,0) rotate(180)"><tspan x="0" y="4" style="font-family: Arial, sans-serif; font-size: 10px; fill: black; font-weight: normal; font-style: italic;">Travis Scott</tspan></text><text transform="rotate(146.4711356363874) translate(241.66666666666669,0) rotate(180)"><tspan x="0" y="4" style="font-family: Arial, sans-serif; font-size: 10px; fill: black; font-weight: normal; font-style: italic;">La Vela Puerca</tspan></text><text transform="rotate(163.8563638738327) translate(241.66666666666669,0) rotate(180)"><tspan x="0" y="4" style="font-family: Arial, sans-serif; font-size: 10px; fill: black; font-weight: normal; font-style: italic;">La Renga</tspan></text><text transform="rotate(179.75608959707438) translate(241.66666666666669,0) rotate(180)"><tspan x="0" y="4" style="font-family: Arial, sans-serif; font-size: 10px; fill: black; font-weight: normal; font-style: italic;">Callejeros</tspan></text><text transform="rotate(196.72108665839488) translate(241.66666666666669,0) rotate(180)"><tspan x="0" y="4" style="font-family: Arial, sans-serif; font-size: 10px; fill: black; font-weight: normal; font-style: italic;">Ben Prunty</tspan></text><text transform="rotate(212.81182655260238) translate(241.66666666666669,0) rotate(180)"><tspan x="0" y="4" style="font-family: Arial, sans-serif; font-size: 10px; fill: black; font-weight: normal; font-style: italic;">Howard Shore</tspan></text><text transform="rotate(226.39146476849743) translate(241.66666666666669,0) rotate(180)"><tspan x="0" y="4" style="font-family: Arial, sans-serif; font-size: 10px; fill: black; font-weight: normal; font-style: italic;">Ramin Djawadi</tspan></text><text transform="rotate(240.40602755828382) translate(241.66666666666669,0) rotate(180)"><tspan x="0" y="4" style="font-family: Arial, sans-serif; font-size: 10px; fill: black; font-weight: normal; font-style: italic;">Office Ladies</tspan></text><text transform="rotate(254.79527199111868) translate(241.66666666666669,0) rotate(180)"><tspan x="0" y="4" style="font-family: Arial, sans-serif; font-size: 10px; fill: black; font-weight: normal; font-style: italic;">Queen</tspan></text><text transform="rotate(265.84617645138115) translate(241.66666666666669,0) rotate(180)"><tspan x="0" y="4" style="font-family: Arial, sans-serif; font-size: 10px; fill: black; font-weight: normal; font-style: italic;">Creedence</tspan></text></g></svg>