<svg xmlns="http://www.w3.org/2000/svg" width="1080" height="800"><rect width="1080" height="800" x="0" y="0" fill="#121212" id="background"/><g transform="translate(540,400)" id="viz"><path fill="#e377c2" display="" d="M0.9999957271859806,-261.3314200773736A261.3333333333333,261.3333333333333,0,0,1,255.68056034425408,-54.06072671689998L128.71509298140373,-27.72248094777416A131.66666666666666,131.66666666666666,0,0,0,0.9999957271859479,-131.66286917600087Z"><title>Rock Progresivo</title></path><path fill="#ff7f0e" display="" d="M256.08679814127754,-52.102427283761585A261.3333333333333,261.3333333333333,0,0,1,154.27082969252905,210.93985450144268L78.12568435970931,105.98343528324688A131.66666666666666,131.66666666666666,0,0,0,129.1213307784272,-25.764181514635762Z"><title>Heavy Metal</title></path><path fill="#1f77b4" display="" d="M152.6519950556129,212.11430766606065A261.3333333333333,261.3333333333333,0,0,1,14.168875514893134,260.94894917924955L7.634053455826067,131.44516856448053A131.66666666666666,131.66666666666666,0,0,0,76.50684972279318,107.15788844786488Z"><title>Hard Rock</title></path><path fill="#2ca02c" display="" d="M12.171425456741423,261.0497414545015A261.3333333333333,261.3333333333333,0,0,1,-190.61271371035966,178.77892628350682L-95.69562306862002,90.43483198756832A131.66666666666666,131.66666666666666,0,0,0,5.636603397674405,131.5459608397325Z"><title>Hip Hop</title></path><path fill="#8c564b" display="" d="M-191.9753219326918,177.3149369905154A261.3333333333333,261.3333333333333,0,0,1,-259.1163983335289,-33.967679134304944L-130.6132814915103,-16.62172702009652A131.66666666666666,131.66666666666666,0,0,0,-97.05823129095212,88.97084269457692Z"><title>Rock Nacional</title></path><path fill="#7f7f7f" display="" d="M-258.84885654521395,-35.94969508001931A261.3333333333333,261.3333333333333,0,0,1,-158.38448652477405,-207.86886620991314L-80.19240838439148,-104.42839052969306A131.66666666666666,131.66666666666666,0,0,0,-130.34573970319533,-18.60374296581083Z"><title>Soundtracks</title></path><path fill="#d62728" display="" d="M-156.78903361072116,-209.07489100924397A261.3333333333333,261.3333333333333,0,0,1,-99.25337816738859,-241.75168672311773L-50.465130110867655,-121.61160205344024A131.66666666666666,131.66666666666666,0,0,0,-78.59695547033856,-105.63441532902394Z"><title>Podcasts</title></path><path fill="#9467bd" display="" d="M-97.40035258025425,-242.5041905377168A261.3333333333333,261.3333333333333,0,0,1,-0.9999957271857804,-261.3314200773736L-0.9999957271859055,-131.66286917600087A131.66666666666666,131.66666666666666,0,0,0,-48.61210452373325,-122.36410586803935Z"><title>Rock</title></path><path fill="#e377c2" display="" d="M0.9999957271859606,-392.9987277441819A393,393,0,0,1,319.8261438143194,-228.3861592410151L214.11059673157686,-153.30067453110732A263.3333333333333,263.3333333333333,0,0,0,0.9999957271859847,-263.3314346085367Z"><title>Pink Floyd</title></path><path fill="#e377c2" display="" d="M320.9842641400833,-226.75560009501245A393,393,0,0,1,363.3685576287256,-149.70735228043912L243.35263062583905,-100.61779967743463A263.3333333333333,263.3333333333333,0,0,0,215.26871705734084,-151.67011538510468Z"><title>Emerson, Lake &amp; Palmer</title></path><path fill="#e377c2" display="" d="M364.12571607115757,-147.8562237299017A393,393,0,0,1,384.60311818975515,-80.80495949332094L257.6388823731226,-54.46696920127588A263.3333333333333,263.3333333333333,0,0,0,244.109789068271,-98.76667112689724Z"><title>Dream Theater</title></path><path fill="#ff7f0e" display="" d="M385.00935598677864,-78.84666006018254A393,393,0,0,1,360.4801177071775,156.53461194834662L241.6743095232629,104.58476256557908A263.3333333333333,263.3333333333333,0,0,0,258.04512017014605,-52.508669768137494Z"><title>Iron Maiden</title></path><path fill="#ff7f0e" display="" d="M359.6788419782799,158.36707559705573A393,393,0,0,1,325.68133116952833,219.95606499399838L218.41031986331322,147.11008334458126A263.3333333333333,263.3333333333333,0,0,0,240.87303379436528,106.41722621428819Z"><title>Metallica</title></path><path fill="#ff7f0e" display="" d="M324.5577529929425,221.61061565767133A393,393,0,0,1,281.20259963602734,274.5434354668494L188.65278082475837,183.72417568608145A263.3333333333333,263.3333333333333,0,0,0,217.28674168672742,148.76463400825423Z"><title>Deep Purple</title></path><path fill="#ff7f0e" display="" d="M279.80180118437846,275.9709261026921A393,393,0,0,1,231.58970314470454,317.51410897367634L155.44529640851022,212.55870781719304A263.3333333333333,263.3333333333333,0,0,0,187.25198237310946,185.15166632192415Z"><title>System Of A Down</title></path><path fill="#1f77b4" display="" d="M229.97086850778828,318.6885621382944A393,393,0,0,1,20.804427625392684,392.4489467321575L14.269668953131221,262.9464222848687A263.3333333333333,263.3333333333333,0,0,0,153.826461771594,213.73316098181104Z"><title>Led Zeppelin</title></path><path fill="#2ca02c" display="" d="M18.80697756724103,392.54973900740947A393,393,0,0,1,-165.03173692246764,356.67005174019505L-110.2815350416721,239.12847482743848A263.3333333333333,263.3333333333333,0,0,0,12.272218894979503,263.0472145601206Z"><title>Eminem</title></path><path fill="#2ca02c" display="" d="M-166.84470103758176,355.82558330687795A393,393,0,0,1,-286.99288985553756,268.48478759953474L-192.07671989551088,180.14155022821885A263.3333333333333,263.3333333333333,0,0,0,-112.09449915678627,238.28400639412138Z"><title>Travis Scott</title></path><path fill="#8c564b" display="" d="M-288.35549807786964,267.0207983065434A393,393,0,0,1,-358.3009114384003,161.46038790493364L-239.94714227444888,108.48877065747324A263.3333333333333,263.3333333333333,0,0,0,-193.43932811784302,178.6775609352274Z"><title>La Vela Puerca</title></path><path fill="#8c564b" display="" d="M-359.117946939468,159.63489651696287A393,393,0,0,1,-388.86262023039444,56.87585241165214L-260.5130889362022,38.43663535434412A263.3333333333333,263.3333333333333,0,0,0,-240.7641777755166,106.66327926950241Z"><title>La Renga</title></path><path fill="#8c564b" display="" d="M-389.1470271586809,54.89618614768157A393,393,0,0,1,-389.6003075294537,-51.58100787067963L-261.098437148625,-34.23522400963608A263.3333333333333,263.3333333333333,0,0,0,-260.79749586448867,36.456969090373484Z"><title>Callejeros</title></path><path fill="#7f7f7f" display="" d="M-389.3327657411387,-53.56302381639393A393,393,0,0,1,-354.39410585349725,-169.8641155050124L-237.6075141468184,-113.5214238168899A263.3333333333333,263.3333333333333,0,0,0,-260.83089536031,-36.21723995535044Z"><title>Ben Prunty</title></path><path fill="#7f7f7f" display="" d="M-353.5250748190121,-171.66543471011244A393,393,0,0,1,-302.2720223127168,-251.15856451051087L-202.7509012485299,-168.03724732139986A263.3333333333333,263.3333333333333,0,0,0,-236.73848311233326,-115.32274302199Z"><title>Howard Shore</title></path><path fill="#7f7f7f" display="" d="M-300.9899571131259,-252.69358068031448A393,393,0,0,1,-237.7818449285677,-312.9038098559469L-159.59052523975527,-209.46433753301173A263.3333333333333,263.3333333333333,0,0,0,-201.468836048939,-169.57226349120356Z"><title>Ramin Djawadi</title></path><path fill="#d62728" display="" d="M-236.18639201451487,-314.1098346552777A393,393,0,0,1,-148.7936654824566,-363.7436530199459L-100.00589066471139,-243.6047336912857A263.3333333333333,263.3333333333333,0,0,0,-157.99507232570278,-210.67036233234228Z"><title>Office Ladies</title></path><path fill="#9467bd" display="" d="M-146.940639895322,-364.4961568345451A393,393,0,0,1,-57.77320808923249,-388.73031323409583L-39.03780538692241,-260.4236820932712A263.3333333333333,263.3333333333333,0,0,0,-98.15286507757725,-244.3572375058847Z"><title>Queen</title></path><path fill="#9467bd" display="" d="M-55.79420351826102,-389.019288536909A393,393,0,0,1,-0.9999957271861835,-392.9987277441819L-0.9999957271859001,-263.3314346085367A263.3333333333333,263.3333333333333,0,0,0,-37.05880081595146,-260.71265739608435Z"><title>Creedence</title></path></g><g id="labels" transform="translate(540,400)" text-anchor="middle"><text transform="rotate(90) translate(65.83333333333333,0) rotate(180)"><tspan x="0" y="4" style="font-family: Arial, sans-serif; font-size: 10px; fill: black; font-weight: normal; font-style: italic;"/></text><text transform="rotate(-50.85972702932149) translate(197.5,0) rotate(0)"><tspan x="0" y="4" style="font-family: Arial, sans-serif; font-size: 10px; fill: black; font-weight: normal; font-style: italic;">Rock Progresivo</tspan></text><text transform="rotate(21.15996212368576) translate(197.5,0) rotate(0)"><tspan x="0" y="4" style="font-family: Arial, sans-serif; font-size: 10px; fill: black; font-weight: normal; font-style: italic;">Heavy Metal</tspan></text><text transform="rotate(70.57532815255013) translate(197.5,0) rotate(0)"><tspan x="0" y="4" style="font-family: Arial, sans-serif; font-size: 10px; fill: black; font-weight: normal; font-style: italic;">Hard Rock</tspan></text><text transform="rotate(112.08270750342845) translate(197.5,0) rotate(180)"><tspan x="0" y="4" style="font-family: Arial, sans-serif; font-size: 10px; fill: black; font-weight: normal; font-style: italic;">Hip Hop</tspan></text><text transform="rotate(162.3708613596291) translate(197.5,0) rotate(180)"><tspan x="0" y="4" style="font-family: Arial, sans-serif; font-size: 10px; fill: black; font-weight: normal; font-style: italic;">Rock Nacional</tspan></text><text transform="rotate(210.30072487428987) translate(197.5,0) rotate(180)"><tspan x="0" y="4" style="font-family: Arial, sans-serif; font-size: 10px; fill: black; font-weight: normal; font-style: italic;">Soundtracks</tspan></text><text transform="rotate(240.40602755828382) translate(197.5,0) rotate(180)"><tspan x="0" y="4" style="font-family: Arial, sans-serif; font-size: 10px; fill: black; font-weight: normal; font-style: italic;">Podcasts</tspan></text><text transform="rotate(258.9490955397375) translate(197.5,0) rotate(180)"><tspan x="0" y="4" style="font-family: Arial, sans-serif; font-size: 10px; fill: black; font-weight: normal; font-style: italic;">Rock</tspan></text><text transform="rotate(-62.692320250767324) translate(329.16666666666663,0) rotate(0)"><tspan x="0" y="4" style="font-family: Arial, sans-serif; font-size: 10px; fill: black; font-weight: normal; font-style: italic;">Pink Floyd</tspan></text><text transform="rotate(-28.815222360086196) translate(329.16666666666663,0) rotate(0)"><tspan x="0" y="4" style="font-family: Arial, sans-serif; font-size: 10px; fill: black; font-weight: normal; font-style: italic;">Emerson, Lake &amp; Palmer</tspan></text><text transform="rotate(-16.982629138640362) translate(329.16666666666663,0) rotate(0)"><tspan x="0" y="4" style="font-family: Arial, sans-serif; font-size: 10px; fill: black; font-weight: normal; font-style: italic;">Dream Theater</tspan></text><text transform="rotate(5.949356755697778) translate(329.16666666666663,0) rotate(0)"><tspan x="0" y="4" style="font-family: Arial, sans-serif; font-size: 10px; fill: black; font-weight: normal; font-style: italic;">Iron Maiden</tspan></text><text transform="rotate(28.89897472735585) translate(329.16666666666663,0) rotate(0)"><tspan x="0" y="4" style="font-family: Arial, sans-serif; font-size: 10px; fill: black; font-weight: normal; font-style: italic;">Metallica</tspan></text><text transform="rotate(39.31953242343107) translate(329.16666666666663,0) rotate(0)"><tspan x="0" y="4" style="font-family: Arial, sans-serif; font-size: 10px; fill: black; font-weight: normal; font-style: italic;">Deep Purple</tspan></text><text transform="rotate(49.24933063410174) translate(329.16666666666663,0) rotate(0)"><tspan x="0" y="4" style="font-family: Arial, sans-serif; font-size: 10px; fill: black; font-weight: normal; font-style: italic;">System Of A Down</tspan></text><text transform="rotate(70.57532815255013) translate(329.16666666666663,0) rotate(0)"><tspan x="0" y="4" style="font-family: Arial, sans-serif; font-size: 10px; fill: black; font-weight: normal; font-style: italic;">Led Zeppelin</tspan></text><text transform="rotate(101.04355776137922) translate(329.16666666666663,0) rotate(180)"><tspan x="0" y="4" style="font-family: Arial, sans-serif; font-size: 10px; fill: black; font-weight: normal; font-style: italic;">Eminem</tspan></text><text transform="rotate(126.01498726572194) translate(329.16666666666663,0) rotate(180)"><tspan x="0" y="4" style="font-family: Arial, sans-serif; font-size: 10px; fill: black; font-weight: normal; font-style: italic;">Travis Scott</tspan></text><text transform="rotate(146.4711356363874) translate(329.16666666666663,0) rotate(180)"><tspan x="0" y="4" style="font-family: Arial, sans-serif; font-size: 10px; fill: black; font-weight: normal; font-style: italic;">La Vela Puerca</tspan></text><text transform="rotate(163.8563638738327) translate(329.16666666666663,0) rotate(180)"><tspan x="0" y="4" style="font-family: Arial, sans-serif; font-size: 10px; fill: black; font-weight: normal; font-style: italic;">La Renga</tspan></text><text transform="rotate(179.75608959707438) translate(329.16666666666663,0) rotate(180)"><tspan x="0" y="4" style="font-family: Arial, sans-serif; font-size: 10px; fill: black; font-weight: normal; font-style: italic;">Callejeros</tspan></text><text transform="rotate(196.72108665839488) translate(329.16666666666663,0) rotate(180)"><tspan x="0" y="4" style="font-family: Arial, sans-serif; font-size: 10px; fill: black; font-weight: normal; font-style: italic;">Ben Prunty</tspan></text><text transform="rotate(212.81182655260238) translate(329.16666666666663,0) rotate(180)"><tspan x="0" y="4" style="font-family: Arial, sans-serif; font-size: 10px; fill: black; font-weight: normal; font-style: italic;">Howard Shore</tspan></text><text transform="rotate(226.39146476849743) translate(329.16666666666663,0) rotate(180)"><tspan x="0" y="4" style="font-family: Arial, sans-serif; font-size: 10px; fill: black; font-weight: normal; font-style: italic;">Ramin Djawadi</tspan></text><text transform="rotate(240.40602755828382) translate(329.16666666666663,0) rotate(180)"><tspan x="0" y="4" style="font-family: Arial, sans-serif; font-size: 10px; fill: black; font-weight: normal; font-style: italic;">Office Ladies</tspan></text><text transform="rotate(254.79527199111868) translate(329.16666666666663,0) rotate(180)"><tspan x="0" y="4" style="font-family: Arial, sans-serif; font-size: 10px; fill: black; font-weight: normal; font-style: italic;">Queen</tspan></text><text transform="rotate(265.84617645138115) translate(329.16666666666663,0) rotate(180)"><tspan x="0" y="4" style="font-family: Arial, sans-serif; font-size: 10px; fill: black; font-weight: normal; font-style: italic;">Creedence</tspan></text></g></svg>